<svg width="52" height="34" viewBox="0 0 52 34" fill="none" xmlns="http://www.w3.org/2000/svg">
<rect x="0.389709" width="51" height="34" fill="#162C15"/>
<path d="M33.7292 23.4605L30.0538 19.7852C30.9387 18.6072 31.4163 17.1733 31.4147 15.7C31.4147 11.9367 28.353 8.875 24.5897 8.875C20.8264 8.875 17.7647 11.9367 17.7647 15.7C17.7647 19.4633 20.8264 22.525 24.5897 22.525C26.063 22.5266 27.4969 22.049 28.6749 21.1641L32.3503 24.8395C32.5363 25.0058 32.779 25.0945 33.0284 25.0876C33.2779 25.0806 33.5152 24.9784 33.6916 24.8019C33.8681 24.6255 33.9703 24.3881 33.9773 24.1387C33.9843 23.8893 33.8955 23.6466 33.7292 23.4605ZM19.7147 15.7C19.7147 14.7358 20.0006 13.7933 20.5363 12.9916C21.072 12.1899 21.8333 11.5651 22.7241 11.1961C23.6149 10.8271 24.5951 10.7306 25.5408 10.9187C26.4864 11.1068 27.3551 11.5711 28.0369 12.2529C28.7186 12.9346 29.1829 13.8033 29.371 14.7489C29.5591 15.6946 29.4626 16.6748 29.0936 17.5656C28.7246 18.4564 28.0998 19.2177 27.2981 19.7534C26.4964 20.2891 25.5539 20.575 24.5897 20.575C23.2973 20.5734 22.0582 20.0593 21.1443 19.1454C20.2304 18.2315 19.7163 16.9925 19.7147 15.7Z" fill="white"/>
</svg>
