<svg width="21" height="20" viewBox="0 0 21 20" fill="none" xmlns="http://www.w3.org/2000/svg">
<path d="M18.7292 16.4605L15.0538 12.7852C15.9387 11.6072 16.4163 10.1733 16.4147 8.7C16.4147 4.93672 13.353 1.875 9.58971 1.875C5.82643 1.875 2.76471 4.93672 2.76471 8.7C2.76471 12.4633 5.82643 15.525 9.58971 15.525C11.063 15.5266 12.4969 15.049 13.6749 14.1641L17.3503 17.8395C17.5363 18.0058 17.779 18.0945 18.0284 18.0876C18.2779 18.0806 18.5152 17.9784 18.6916 17.8019C18.8681 17.6255 18.9703 17.3881 18.9773 17.1387C18.9843 16.8893 18.8955 16.6466 18.7292 16.4605ZM4.71471 8.7C4.71471 7.73582 5.00062 6.79328 5.5363 5.9916C6.07197 5.18991 6.83334 4.56506 7.72413 4.19609C8.61492 3.82711 9.59512 3.73057 10.5408 3.91867C11.4864 4.10677 12.3551 4.57107 13.0369 5.25285C13.7186 5.93464 14.1829 6.80328 14.371 7.74893C14.5591 8.69459 14.4626 9.67479 14.0936 10.5656C13.7246 11.4564 13.0998 12.2177 12.2981 12.7534C11.4964 13.2891 10.5539 13.575 9.58971 13.575C8.29726 13.5734 7.05818 13.0593 6.14428 12.1454C5.23037 11.2315 4.71626 9.99245 4.71471 8.7Z" fill="white"/>
</svg>
