<svg width="20" height="21" viewBox="0 0 20 21" fill="none" xmlns="http://www.w3.org/2000/svg">
	<g clip-path="url(#clip0_719_4794)">
		<g clip-path="url(#clip1_719_4794)">
			<path d="M9.04896 3.70618C9.34833 2.78492 10.6517 2.78492 10.951 3.70618L12.0208 6.99818C12.1547 7.41017 12.5386 7.68911 12.9718 7.68912L16.4333 7.68925C17.402 7.68929 17.8047 8.92884 17.0211 9.49825L14.2208 11.5329C13.8703 11.7876 13.7237 12.2389 13.8575 12.6509L14.927 15.943C15.2263 16.8643 14.1719 17.6304 13.3882 17.061L10.5878 15.0265C10.2373 14.7719 9.76272 14.7719 9.41225 15.0265L6.61179 17.061C5.82809 17.6304 4.77367 16.8643 5.07297 15.943L6.14249 12.6509C6.27634 12.2389 6.1297 11.7876 5.77924 11.5329L2.97894 9.49825C2.19528 8.92884 2.59804 7.68929 3.56672 7.68925L7.02818 7.68912C7.46137 7.68911 7.8453 7.41017 7.97918 6.99818L9.04896 3.70618Z" fill="#fafafa" />
		</g>
	</g>
	<defs>
		<clipPath id="clip0_719_4794">
			<rect width="20" height="20" fill="white" transform="translate(0 0.779541)" />
		</clipPath>
		<clipPath id="clip1_719_4794">
			<rect width="20" height="20" fill="white" transform="translate(0 0.779541)" />
		</clipPath>
	</defs>
</svg>
